<svg width="800" height="800" viewBox="0 0 800 800" fill="none" xmlns="http://www.w3.org/2000/svg">
<path d="M669.802 699.953C636.603 749.55 601.405 797.947 547.807 798.747C494.209 799.947 477.009 767.149 416.212 767.149C355.014 767.149 336.215 797.947 285.416 799.947C233.018 801.947 193.419 747.15 159.82 698.754C91.423 599.96 39.025 417.972 109.422 295.58C144.221 234.784 206.619 196.387 274.216 195.187C325.415 194.387 374.213 229.985 405.812 229.985C437.011 229.985 496.209 187.188 558.206 193.587C584.205 194.787 657.003 203.986 703.801 272.782C700.201 275.182 617.004 323.978 617.804 425.172C619.004 545.964 723.8 586.361 725 586.761C723.8 589.561 708.201 644.357 669.802 699.953ZM441.411 59.996C470.61 26.7982 519.008 1.59989 559.006 0C564.206 46.7969 545.407 93.9938 517.408 127.592C489.809 161.589 444.211 187.988 399.412 184.388C393.413 138.391 415.812 90.394 441.411 59.996Z" fill="black"/>
</svg>
